<mxfile host="app.diagrams.net" agent="Mozilla/5.0 (Macintosh; Intel Mac OS X 10_15_7) AppleWebKit/537.36 (KHTML, like Gecko) Chrome/128.0.0.0 Safari/537.36" modified="2024-09-14T06:45:38.644Z" version="24.2.3" etag="H6ia_GVJRz4sHRSekRUz" type="github" pages="2">
  <diagram name="第 1 页" id="B09jO34l7bWqkV-am1vE">
    <mxGraphModel dx="2074" dy="1049" grid="1" gridSize="10" guides="1" tooltips="1" connect="1" arrows="1" fold="1" page="1" pageScale="1" pageWidth="827" pageHeight="1169" math="0" shadow="0">
      <root>
        <mxCell id="0" />
        <mxCell id="1" parent="0" />
        <mxCell id="l9q7uccA2g5ODQns56o_-53" value="" style="rounded=1;whiteSpace=wrap;html=1;fillColor=none;strokeWidth=2;dashed=1;arcSize=4;" parent="1" vertex="1">
          <mxGeometry x="90" y="1240" width="630" height="140" as="geometry" />
        </mxCell>
        <mxCell id="l9q7uccA2g5ODQns56o_-48" value="" style="rounded=1;whiteSpace=wrap;html=1;fillColor=none;strokeWidth=2;dashed=1;arcSize=4;" parent="1" vertex="1">
          <mxGeometry x="90" y="769" width="630" height="398" as="geometry" />
        </mxCell>
        <mxCell id="l9q7uccA2g5ODQns56o_-28" value="" style="rounded=1;whiteSpace=wrap;html=1;fillColor=none;strokeWidth=2;dashed=1;arcSize=4;" parent="1" vertex="1">
          <mxGeometry x="90" y="564" width="630" height="140" as="geometry" />
        </mxCell>
        <mxCell id="l9q7uccA2g5ODQns56o_-4" value="Hive 数据清洗" style="rounded=0;whiteSpace=wrap;html=1;fillColor=#d5e8d4;strokeColor=#82b366;" parent="1" vertex="1">
          <mxGeometry x="360" y="240" width="120" height="60" as="geometry" />
        </mxCell>
        <mxCell id="l9q7uccA2g5ODQns56o_-5" value="" style="shape=flexArrow;endArrow=classic;html=1;rounded=0;fillColor=#d5e8d4;strokeColor=#82b366;" parent="1" edge="1">
          <mxGeometry width="50" height="50" relative="1" as="geometry">
            <mxPoint x="200" y="270" as="sourcePoint" />
            <mxPoint x="330" y="270" as="targetPoint" />
          </mxGeometry>
        </mxCell>
        <mxCell id="l9q7uccA2g5ODQns56o_-6" value="Kafka" style="text;html=1;align=center;verticalAlign=middle;whiteSpace=wrap;rounded=0;" parent="1" vertex="1">
          <mxGeometry x="220" y="240" width="60" height="30" as="geometry" />
        </mxCell>
        <mxCell id="l9q7uccA2g5ODQns56o_-8" value="" style="group" parent="1" vertex="1" connectable="0">
          <mxGeometry x="90" y="220" width="80" height="120" as="geometry" />
        </mxCell>
        <mxCell id="l9q7uccA2g5ODQns56o_-2" value="" style="shape=cylinder3;whiteSpace=wrap;html=1;boundedLbl=1;backgroundOutline=1;size=15;fillColor=#dae8fc;strokeColor=#6c8ebf;" parent="l9q7uccA2g5ODQns56o_-8" vertex="1">
          <mxGeometry x="10" width="60" height="80" as="geometry" />
        </mxCell>
        <mxCell id="l9q7uccA2g5ODQns56o_-3" value="出行服务订单历史数据库" style="text;html=1;align=center;verticalAlign=middle;whiteSpace=wrap;rounded=0;" parent="l9q7uccA2g5ODQns56o_-8" vertex="1">
          <mxGeometry y="90" width="80" height="30" as="geometry" />
        </mxCell>
        <mxCell id="l9q7uccA2g5ODQns56o_-9" value="" style="group" parent="1" vertex="1" connectable="0">
          <mxGeometry x="560" y="90" width="80" height="120" as="geometry" />
        </mxCell>
        <mxCell id="l9q7uccA2g5ODQns56o_-10" value="" style="shape=cylinder3;whiteSpace=wrap;html=1;boundedLbl=1;backgroundOutline=1;size=15;fillColor=#d5e8d4;strokeColor=#82b366;" parent="l9q7uccA2g5ODQns56o_-9" vertex="1">
          <mxGeometry x="10" width="60" height="80" as="geometry" />
        </mxCell>
        <mxCell id="l9q7uccA2g5ODQns56o_-11" value="用户特征" style="text;html=1;align=center;verticalAlign=middle;whiteSpace=wrap;rounded=0;" parent="l9q7uccA2g5ODQns56o_-9" vertex="1">
          <mxGeometry y="90" width="80" height="30" as="geometry" />
        </mxCell>
        <mxCell id="l9q7uccA2g5ODQns56o_-12" value="" style="group" parent="1" vertex="1" connectable="0">
          <mxGeometry x="560" y="217" width="80" height="120" as="geometry" />
        </mxCell>
        <mxCell id="l9q7uccA2g5ODQns56o_-13" value="" style="shape=cylinder3;whiteSpace=wrap;html=1;boundedLbl=1;backgroundOutline=1;size=15;fillColor=#d5e8d4;strokeColor=#82b366;" parent="l9q7uccA2g5ODQns56o_-12" vertex="1">
          <mxGeometry x="10" width="60" height="80" as="geometry" />
        </mxCell>
        <mxCell id="l9q7uccA2g5ODQns56o_-14" value="订单特征" style="text;html=1;align=center;verticalAlign=middle;whiteSpace=wrap;rounded=0;" parent="l9q7uccA2g5ODQns56o_-12" vertex="1">
          <mxGeometry y="90" width="80" height="30" as="geometry" />
        </mxCell>
        <mxCell id="l9q7uccA2g5ODQns56o_-15" value="" style="group" parent="1" vertex="1" connectable="0">
          <mxGeometry x="560" y="353" width="80" height="120" as="geometry" />
        </mxCell>
        <mxCell id="l9q7uccA2g5ODQns56o_-16" value="" style="shape=cylinder3;whiteSpace=wrap;html=1;boundedLbl=1;backgroundOutline=1;size=15;fillColor=#d5e8d4;strokeColor=#82b366;" parent="l9q7uccA2g5ODQns56o_-15" vertex="1">
          <mxGeometry x="10" width="60" height="80" as="geometry" />
        </mxCell>
        <mxCell id="l9q7uccA2g5ODQns56o_-17" value="地域特征" style="text;html=1;align=center;verticalAlign=middle;whiteSpace=wrap;rounded=0;" parent="l9q7uccA2g5ODQns56o_-15" vertex="1">
          <mxGeometry y="90" width="80" height="30" as="geometry" />
        </mxCell>
        <mxCell id="l9q7uccA2g5ODQns56o_-18" style="edgeStyle=orthogonalEdgeStyle;rounded=0;orthogonalLoop=1;jettySize=auto;html=1;exitX=1;exitY=0.5;exitDx=0;exitDy=0;entryX=0;entryY=0;entryDx=0;entryDy=52.5;entryPerimeter=0;" parent="1" source="l9q7uccA2g5ODQns56o_-4" target="l9q7uccA2g5ODQns56o_-10" edge="1">
          <mxGeometry relative="1" as="geometry" />
        </mxCell>
        <mxCell id="l9q7uccA2g5ODQns56o_-19" style="edgeStyle=orthogonalEdgeStyle;rounded=0;orthogonalLoop=1;jettySize=auto;html=1;exitX=1;exitY=0.5;exitDx=0;exitDy=0;entryX=0;entryY=0;entryDx=0;entryDy=52.5;entryPerimeter=0;" parent="1" source="l9q7uccA2g5ODQns56o_-4" target="l9q7uccA2g5ODQns56o_-13" edge="1">
          <mxGeometry relative="1" as="geometry" />
        </mxCell>
        <mxCell id="l9q7uccA2g5ODQns56o_-20" style="edgeStyle=orthogonalEdgeStyle;rounded=0;orthogonalLoop=1;jettySize=auto;html=1;exitX=1;exitY=0.5;exitDx=0;exitDy=0;entryX=0;entryY=0.5;entryDx=0;entryDy=0;entryPerimeter=0;" parent="1" source="l9q7uccA2g5ODQns56o_-4" target="l9q7uccA2g5ODQns56o_-16" edge="1">
          <mxGeometry relative="1" as="geometry" />
        </mxCell>
        <mxCell id="l9q7uccA2g5ODQns56o_-21" value="" style="rounded=1;whiteSpace=wrap;html=1;fillColor=none;strokeWidth=2;dashed=1;arcSize=4;" parent="1" vertex="1">
          <mxGeometry x="180" y="70" width="540" height="430" as="geometry" />
        </mxCell>
        <mxCell id="l9q7uccA2g5ODQns56o_-22" value="&lt;b&gt;&lt;font style=&quot;font-size: 14px;&quot;&gt;数据收集与清洗&lt;/font&gt;&lt;/b&gt;" style="text;html=1;align=center;verticalAlign=middle;whiteSpace=wrap;rounded=0;" parent="1" vertex="1">
          <mxGeometry x="200" y="90" width="100" height="30" as="geometry" />
        </mxCell>
        <mxCell id="l9q7uccA2g5ODQns56o_-24" value="LSTM" style="rounded=1;whiteSpace=wrap;html=1;fillColor=#ffe6cc;strokeColor=#d79b00;" parent="1" vertex="1">
          <mxGeometry x="110" y="614" width="120" height="60" as="geometry" />
        </mxCell>
        <mxCell id="l9q7uccA2g5ODQns56o_-25" value="K-Means" style="rounded=1;whiteSpace=wrap;html=1;fillColor=#ffe6cc;strokeColor=#d79b00;" parent="1" vertex="1">
          <mxGeometry x="270" y="614" width="120" height="60" as="geometry" />
        </mxCell>
        <mxCell id="l9q7uccA2g5ODQns56o_-26" value="GWR" style="rounded=1;whiteSpace=wrap;html=1;fillColor=#ffe6cc;strokeColor=#d79b00;" parent="1" vertex="1">
          <mxGeometry x="430" y="614" width="120" height="60" as="geometry" />
        </mxCell>
        <mxCell id="l9q7uccA2g5ODQns56o_-27" value="XGBoost" style="rounded=1;whiteSpace=wrap;html=1;fillColor=#ffe6cc;strokeColor=#d79b00;" parent="1" vertex="1">
          <mxGeometry x="590" y="614" width="120" height="60" as="geometry" />
        </mxCell>
        <mxCell id="l9q7uccA2g5ODQns56o_-29" value="&lt;span style=&quot;font-size: 14px;&quot;&gt;&lt;b&gt;模型训练&lt;/b&gt;&lt;/span&gt;" style="text;html=1;align=left;verticalAlign=middle;whiteSpace=wrap;rounded=0;" parent="1" vertex="1">
          <mxGeometry x="110" y="574" width="100" height="30" as="geometry" />
        </mxCell>
        <mxCell id="l9q7uccA2g5ODQns56o_-30" value="" style="shape=flexArrow;endArrow=classic;html=1;rounded=0;fillColor=#e1d5e7;strokeColor=#9673a6;" parent="1" edge="1">
          <mxGeometry width="50" height="50" relative="1" as="geometry">
            <mxPoint x="405" y="506" as="sourcePoint" />
            <mxPoint x="405" y="550" as="targetPoint" />
          </mxGeometry>
        </mxCell>
        <mxCell id="l9q7uccA2g5ODQns56o_-31" value="" style="image;points=[];aspect=fixed;html=1;align=center;shadow=0;dashed=0;image=img/lib/allied_telesis/computer_and_terminals/Server_Desktop.svg;" parent="1" vertex="1">
          <mxGeometry x="116.21000000000001" y="817" width="66.27" height="84" as="geometry" />
        </mxCell>
        <mxCell id="l9q7uccA2g5ODQns56o_-32" value="运力商自助服务平台" style="text;html=1;align=center;verticalAlign=middle;whiteSpace=wrap;rounded=0;" parent="1" vertex="1">
          <mxGeometry x="110" y="917" width="78.7" height="30" as="geometry" />
        </mxCell>
        <mxCell id="l9q7uccA2g5ODQns56o_-41" style="edgeStyle=orthogonalEdgeStyle;rounded=0;orthogonalLoop=1;jettySize=auto;html=1;exitX=0.55;exitY=0.95;exitDx=0;exitDy=0;exitPerimeter=0;entryX=0.5;entryY=0;entryDx=0;entryDy=0;" parent="1" source="l9q7uccA2g5ODQns56o_-33" target="l9q7uccA2g5ODQns56o_-38" edge="1">
          <mxGeometry relative="1" as="geometry" />
        </mxCell>
        <mxCell id="l9q7uccA2g5ODQns56o_-43" style="edgeStyle=orthogonalEdgeStyle;rounded=0;orthogonalLoop=1;jettySize=auto;html=1;exitX=0.55;exitY=0.95;exitDx=0;exitDy=0;exitPerimeter=0;" parent="1" source="l9q7uccA2g5ODQns56o_-33" target="l9q7uccA2g5ODQns56o_-37" edge="1">
          <mxGeometry relative="1" as="geometry" />
        </mxCell>
        <mxCell id="l9q7uccA2g5ODQns56o_-44" style="edgeStyle=orthogonalEdgeStyle;rounded=0;orthogonalLoop=1;jettySize=auto;html=1;exitX=0.55;exitY=0.95;exitDx=0;exitDy=0;exitPerimeter=0;" parent="1" source="l9q7uccA2g5ODQns56o_-33" target="l9q7uccA2g5ODQns56o_-39" edge="1">
          <mxGeometry relative="1" as="geometry" />
        </mxCell>
        <mxCell id="l9q7uccA2g5ODQns56o_-33" value="腾讯太极模型部署平台" style="ellipse;shape=cloud;whiteSpace=wrap;html=1;" parent="1" vertex="1">
          <mxGeometry x="380" y="809" width="200" height="100" as="geometry" />
        </mxCell>
        <mxCell id="l9q7uccA2g5ODQns56o_-35" value="" style="endArrow=classic;html=1;rounded=0;" parent="1" edge="1">
          <mxGeometry width="50" height="50" relative="1" as="geometry">
            <mxPoint x="198.7" y="867" as="sourcePoint" />
            <mxPoint x="370" y="867" as="targetPoint" />
          </mxGeometry>
        </mxCell>
        <mxCell id="l9q7uccA2g5ODQns56o_-36" value="活动时间/地点/服务商信息" style="text;html=1;align=center;verticalAlign=middle;whiteSpace=wrap;rounded=0;" parent="1" vertex="1">
          <mxGeometry x="200" y="837" width="160" height="30" as="geometry" />
        </mxCell>
        <mxCell id="l9q7uccA2g5ODQns56o_-56" style="edgeStyle=orthogonalEdgeStyle;rounded=0;orthogonalLoop=1;jettySize=auto;html=1;exitX=0.5;exitY=1;exitDx=0;exitDy=0;entryX=0.5;entryY=0;entryDx=0;entryDy=0;" parent="1" source="l9q7uccA2g5ODQns56o_-37" target="l9q7uccA2g5ODQns56o_-40" edge="1">
          <mxGeometry relative="1" as="geometry" />
        </mxCell>
        <mxCell id="l9q7uccA2g5ODQns56o_-37" value="LSTM" style="rounded=1;whiteSpace=wrap;html=1;fillColor=#dae8fc;strokeColor=#6c8ebf;" parent="1" vertex="1">
          <mxGeometry x="280" y="957" width="120" height="60" as="geometry" />
        </mxCell>
        <mxCell id="l9q7uccA2g5ODQns56o_-45" style="edgeStyle=orthogonalEdgeStyle;rounded=0;orthogonalLoop=1;jettySize=auto;html=1;exitX=0.5;exitY=1;exitDx=0;exitDy=0;entryX=0.5;entryY=0;entryDx=0;entryDy=0;" parent="1" source="l9q7uccA2g5ODQns56o_-38" target="l9q7uccA2g5ODQns56o_-40" edge="1">
          <mxGeometry relative="1" as="geometry" />
        </mxCell>
        <mxCell id="l9q7uccA2g5ODQns56o_-38" value="K-Means" style="rounded=1;whiteSpace=wrap;html=1;fillColor=#dae8fc;strokeColor=#6c8ebf;" parent="1" vertex="1">
          <mxGeometry x="430" y="957" width="120" height="60" as="geometry" />
        </mxCell>
        <mxCell id="l9q7uccA2g5ODQns56o_-57" style="edgeStyle=orthogonalEdgeStyle;rounded=0;orthogonalLoop=1;jettySize=auto;html=1;exitX=0.5;exitY=1;exitDx=0;exitDy=0;entryX=0.5;entryY=0;entryDx=0;entryDy=0;" parent="1" source="l9q7uccA2g5ODQns56o_-39" target="l9q7uccA2g5ODQns56o_-40" edge="1">
          <mxGeometry relative="1" as="geometry" />
        </mxCell>
        <mxCell id="l9q7uccA2g5ODQns56o_-39" value="GWR" style="rounded=1;whiteSpace=wrap;html=1;fillColor=#dae8fc;strokeColor=#6c8ebf;" parent="1" vertex="1">
          <mxGeometry x="580" y="957" width="120" height="60" as="geometry" />
        </mxCell>
        <mxCell id="l9q7uccA2g5ODQns56o_-46" style="edgeStyle=orthogonalEdgeStyle;rounded=0;orthogonalLoop=1;jettySize=auto;html=1;exitX=0;exitY=0.5;exitDx=0;exitDy=0;entryX=0.5;entryY=1;entryDx=0;entryDy=0;" parent="1" source="l9q7uccA2g5ODQns56o_-40" target="l9q7uccA2g5ODQns56o_-32" edge="1">
          <mxGeometry relative="1" as="geometry" />
        </mxCell>
        <mxCell id="l9q7uccA2g5ODQns56o_-40" value="XGBoost" style="rounded=1;whiteSpace=wrap;html=1;fillColor=#dae8fc;strokeColor=#6c8ebf;" parent="1" vertex="1">
          <mxGeometry x="430" y="1077" width="120" height="60" as="geometry" />
        </mxCell>
        <mxCell id="l9q7uccA2g5ODQns56o_-47" value="建议补贴方案" style="text;html=1;align=center;verticalAlign=middle;whiteSpace=wrap;rounded=0;" parent="1" vertex="1">
          <mxGeometry x="200" y="1077" width="110" height="30" as="geometry" />
        </mxCell>
        <mxCell id="l9q7uccA2g5ODQns56o_-49" value="&lt;span style=&quot;font-size: 14px;&quot;&gt;&lt;b&gt;模型预测&lt;/b&gt;&lt;/span&gt;" style="text;html=1;align=left;verticalAlign=middle;whiteSpace=wrap;rounded=0;" parent="1" vertex="1">
          <mxGeometry x="110" y="779" width="100" height="30" as="geometry" />
        </mxCell>
        <mxCell id="l9q7uccA2g5ODQns56o_-51" value="贝叶斯参数调优" style="rounded=1;whiteSpace=wrap;html=1;fillColor=#f8cecc;strokeColor=#b85450;" parent="1" vertex="1">
          <mxGeometry x="210" y="1290" width="120" height="60" as="geometry" />
        </mxCell>
        <mxCell id="l9q7uccA2g5ODQns56o_-52" value="MCDA" style="rounded=1;whiteSpace=wrap;html=1;fillColor=#f8cecc;strokeColor=#b85450;" parent="1" vertex="1">
          <mxGeometry x="490" y="1290" width="120" height="60" as="geometry" />
        </mxCell>
        <mxCell id="l9q7uccA2g5ODQns56o_-54" value="&lt;span style=&quot;font-size: 14px;&quot;&gt;&lt;b&gt;模型调优&lt;/b&gt;&lt;/span&gt;" style="text;html=1;align=left;verticalAlign=middle;whiteSpace=wrap;rounded=0;" parent="1" vertex="1">
          <mxGeometry x="110" y="1240" width="100" height="30" as="geometry" />
        </mxCell>
        <mxCell id="l9q7uccA2g5ODQns56o_-55" value="" style="shape=flexArrow;endArrow=classic;html=1;rounded=0;fillColor=#e1d5e7;strokeColor=#9673a6;" parent="1" edge="1">
          <mxGeometry width="50" height="50" relative="1" as="geometry">
            <mxPoint x="405" y="710" as="sourcePoint" />
            <mxPoint x="404.5" y="754" as="targetPoint" />
          </mxGeometry>
        </mxCell>
        <mxCell id="l9q7uccA2g5ODQns56o_-58" value="" style="shape=flexArrow;endArrow=classic;html=1;rounded=0;fillColor=#e1d5e7;strokeColor=#9673a6;" parent="1" edge="1">
          <mxGeometry width="50" height="50" relative="1" as="geometry">
            <mxPoint x="405" y="1180" as="sourcePoint" />
            <mxPoint x="404.5" y="1224" as="targetPoint" />
          </mxGeometry>
        </mxCell>
        <mxCell id="l9q7uccA2g5ODQns56o_-59" value="" style="shape=flexArrow;endArrow=classic;html=1;rounded=0;edgeStyle=orthogonalEdgeStyle;fillColor=#e1d5e7;strokeColor=#9673a6;" parent="1" edge="1">
          <mxGeometry width="50" height="50" relative="1" as="geometry">
            <mxPoint x="730" y="1310" as="sourcePoint" />
            <mxPoint x="730" y="640" as="targetPoint" />
            <Array as="points">
              <mxPoint x="790" y="1310" />
              <mxPoint x="790" y="640" />
              <mxPoint x="722" y="640" />
            </Array>
          </mxGeometry>
        </mxCell>
      </root>
    </mxGraphModel>
  </diagram>
  <diagram id="uPqCpARuO6wQupz81j2d" name="第 2 页">
    <mxGraphModel dx="2304" dy="1166" grid="1" gridSize="10" guides="1" tooltips="1" connect="1" arrows="1" fold="1" page="1" pageScale="1" pageWidth="827" pageHeight="1169" math="0" shadow="0">
      <root>
        <mxCell id="0" />
        <mxCell id="1" parent="0" />
        <mxCell id="Eqzrp63JsbUCnlvymbc3-3" style="edgeStyle=orthogonalEdgeStyle;rounded=0;orthogonalLoop=1;jettySize=auto;html=1;exitX=0.5;exitY=0.5;exitDx=0;exitDy=0;exitPerimeter=0;entryX=0;entryY=0.25;entryDx=0;entryDy=0;" edge="1" parent="1" source="Eqzrp63JsbUCnlvymbc3-1" target="Eqzrp63JsbUCnlvymbc3-2">
          <mxGeometry relative="1" as="geometry" />
        </mxCell>
        <mxCell id="Eqzrp63JsbUCnlvymbc3-1" value="出行服务小程序" style="shape=umlActor;verticalLabelPosition=bottom;verticalAlign=top;html=1;outlineConnect=0;" vertex="1" parent="1">
          <mxGeometry x="90" y="180" width="30" height="60" as="geometry" />
        </mxCell>
        <mxCell id="Eqzrp63JsbUCnlvymbc3-2" value="" style="rounded=1;whiteSpace=wrap;html=1;fillColor=none;dashed=1;dashPattern=8 8;strokeWidth=2;" vertex="1" parent="1">
          <mxGeometry x="200" y="120" width="510" height="360" as="geometry" />
        </mxCell>
        <mxCell id="Eqzrp63JsbUCnlvymbc3-6" value="出行服务会员后台" style="text;html=1;align=center;verticalAlign=middle;whiteSpace=wrap;rounded=0;" vertex="1" parent="1">
          <mxGeometry x="230" y="140" width="60" height="30" as="geometry" />
        </mxCell>
        <mxCell id="Eqzrp63JsbUCnlvymbc3-8" value="用户身份认证" style="rounded=1;whiteSpace=wrap;html=1;fillColor=#dae8fc;strokeColor=#6c8ebf;" vertex="1" parent="1">
          <mxGeometry x="250" y="200" width="160" height="80" as="geometry" />
        </mxCell>
        <mxCell id="Eqzrp63JsbUCnlvymbc3-10" value="会员等级评估" style="rounded=1;whiteSpace=wrap;html=1;fillColor=#dae8fc;strokeColor=#6c8ebf;" vertex="1" parent="1">
          <mxGeometry x="480" y="200" width="160" height="80" as="geometry" />
        </mxCell>
        <mxCell id="Eqzrp63JsbUCnlvymbc3-11" value="数据处理与储存" style="rounded=1;whiteSpace=wrap;html=1;fillColor=#dae8fc;strokeColor=#6c8ebf;" vertex="1" parent="1">
          <mxGeometry x="250" y="320" width="160" height="80" as="geometry" />
        </mxCell>
        <mxCell id="Eqzrp63JsbUCnlvymbc3-12" value="安全权限管理" style="rounded=1;whiteSpace=wrap;html=1;fillColor=#dae8fc;strokeColor=#6c8ebf;" vertex="1" parent="1">
          <mxGeometry x="480" y="320" width="160" height="80" as="geometry" />
        </mxCell>
        <mxCell id="Eqzrp63JsbUCnlvymbc3-13" value="合作商" style="shape=umlActor;verticalLabelPosition=bottom;verticalAlign=top;html=1;outlineConnect=0;" vertex="1" parent="1">
          <mxGeometry x="90" y="624" width="30" height="60" as="geometry" />
        </mxCell>
        <mxCell id="Eqzrp63JsbUCnlvymbc3-15" style="edgeStyle=orthogonalEdgeStyle;rounded=0;orthogonalLoop=1;jettySize=auto;html=1;exitX=0.5;exitY=0;exitDx=0;exitDy=0;entryX=0.5;entryY=1;entryDx=0;entryDy=0;" edge="1" parent="1" source="Eqzrp63JsbUCnlvymbc3-14" target="Eqzrp63JsbUCnlvymbc3-2">
          <mxGeometry relative="1" as="geometry" />
        </mxCell>
        <mxCell id="Eqzrp63JsbUCnlvymbc3-14" value="" style="rounded=1;whiteSpace=wrap;html=1;fillColor=none;dashed=1;dashPattern=8 8;strokeWidth=2;" vertex="1" parent="1">
          <mxGeometry x="200" y="550" width="510" height="210" as="geometry" />
        </mxCell>
        <mxCell id="Eqzrp63JsbUCnlvymbc3-16" value="联盟伙伴接入后台" style="text;html=1;align=center;verticalAlign=middle;whiteSpace=wrap;rounded=0;" vertex="1" parent="1">
          <mxGeometry x="240" y="570" width="60" height="30" as="geometry" />
        </mxCell>
        <mxCell id="Eqzrp63JsbUCnlvymbc3-17" style="edgeStyle=orthogonalEdgeStyle;rounded=0;orthogonalLoop=1;jettySize=auto;html=1;exitX=0.5;exitY=0.5;exitDx=0;exitDy=0;exitPerimeter=0;entryX=0;entryY=0.5;entryDx=0;entryDy=0;" edge="1" parent="1" source="Eqzrp63JsbUCnlvymbc3-13" target="Eqzrp63JsbUCnlvymbc3-14">
          <mxGeometry relative="1" as="geometry" />
        </mxCell>
        <mxCell id="Eqzrp63JsbUCnlvymbc3-18" value="合作商接入审批" style="rounded=1;whiteSpace=wrap;html=1;fillColor=#fff2cc;strokeColor=#d6b656;" vertex="1" parent="1">
          <mxGeometry x="240" y="640" width="110" height="80" as="geometry" />
        </mxCell>
        <mxCell id="Eqzrp63JsbUCnlvymbc3-19" value="会员权益登记" style="rounded=1;whiteSpace=wrap;html=1;fillColor=#fff2cc;strokeColor=#d6b656;" vertex="1" parent="1">
          <mxGeometry x="400" y="640" width="110" height="80" as="geometry" />
        </mxCell>
        <mxCell id="Eqzrp63JsbUCnlvymbc3-20" value="运营数据展示" style="rounded=1;whiteSpace=wrap;html=1;fillColor=#fff2cc;strokeColor=#d6b656;" vertex="1" parent="1">
          <mxGeometry x="560" y="640" width="110" height="80" as="geometry" />
        </mxCell>
      </root>
    </mxGraphModel>
  </diagram>
</mxfile>
